<?xml version="1.0" encoding="UTF-8"?>
<svg width="192px" height="192px" viewBox="0 0 192 192" version="1.1" xmlns="http://www.w3.org/2000/svg" xmlns:xlink="http://www.w3.org/1999/xlink">
    <!-- Generator: Sketch 55 (78076) - https://sketchapp.com -->
    <title>192 Android</title>
    <desc>Created with Sketch.</desc>
    <g id="192-Android" stroke="none" stroke-width="1" fill="none" fill-rule="evenodd">
        <g id="Group">
            <path d="M54.8030461,-2.21410866e-15 L137.196954,2.21410866e-15 C156.253167,-1.28646089e-15 163.16341,1.98414744 170.130077,5.70996154 C177.096744,9.43577565 182.564224,14.9032564 186.290038,21.8699231 C190.015853,28.8365898 192,35.7468331 192,54.8030461 L192,137.196954 C192,156.253167 190.015853,163.16341 186.290038,170.130077 C182.564224,177.096744 177.096744,182.564224 170.130077,186.290038 C163.16341,190.015853 156.253167,192 137.196954,192 L54.8030461,192 C35.7468331,192 28.8365898,190.015853 21.8699231,186.290038 C14.9032564,182.564224 9.43577565,177.096744 5.70996154,170.130077 C1.98414744,163.16341 8.57640595e-16,156.253167 -1.47607244e-15,137.196954 L1.47607244e-15,54.8030461 C-8.57640595e-16,35.7468331 1.98414744,28.8365898 5.70996154,21.8699231 C9.43577565,14.9032564 14.9032564,9.43577565 21.8699231,5.70996154 C28.8365898,1.98414744 35.7468331,1.28646089e-15 54.8030461,-2.21410866e-15 Z" id="Path" fill="#E10098"></path>
            <g id="atomo-/-icono-/-liverpool-/-regular-/-desktop" transform="translate(38.000000, 43.000000)" fill="#FFFFFF">
                <path d="M65.3119312,69.4590197 L38.8368854,69.4590197 C35.8947874,69.4590197 34.9434963,67.5977201 34.9434963,65.0567102 C34.9434963,62.9978203 34.9281529,0.33011439 34.9281529,0.33011439 L25.6223776,0.33011439 L25.6223776,73.88504 C25.6223776,76.9713989 28.2154131,79.0105297 30.125667,79.0105297 L65.3119312,79.0105297 L65.3119312,69.4590197 Z" id="Fill-1"></path>
                <path d="M65.3119312,82.6536977 L65.3119312,92.2249667 L18.3074091,92.2249667 C15.0891298,92.2249667 12.8605002,89.7471856 12.8605002,86.5422727 C12.891187,82.7801554 12.8605002,0.325767405 12.8605002,0.325767405 L22.127917,0.325767405 L22.127917,76.7062328 C22.127917,80.0573625 23.5433461,82.6536977 27.5134523,82.6536977 L65.3119312,82.6536977 Z" id="Fill-3"></path>
                <path d="M0.014234106,0.327348127 L9.33535283,0.327348127 L9.33535283,89.2350318 C9.33535283,92.455752 10.8965443,95.8582551 15.4573715,95.8582551 L65.3119312,95.8582551 L65.3119312,105.405813 L11.0883369,105.405813 C4.9011087,105.405813 0.014234106,100.126203 0.014234106,93.8270279 L0.014234106,0.327348127 Z" id="Fill-6"></path>
                <path d="M38.4160925,0.327348127 L47.7333754,0.327348127 L47.7333754,52.5346292 C47.7333754,54.4314951 48.569591,56.245373 51.2201642,56.245373 L65.313082,56.245373 L65.313082,65.8245456 L43.149533,65.8245456 C39.7394612,65.8245456 38.4160925,63.5957283 38.4160925,61.0507666 L38.4160925,0.327348127 Z" id="Fill-9"></path>
                <path d="M51.2627422,36.2757225 L77.7339522,36.2757225 C80.679886,36.2757225 81.6311771,38.1409739 81.6311771,40.6819838 C81.6311771,42.73297 81.6426847,105.400676 81.6426847,105.400676 L90.94846,105.400676 L90.94846,31.8497021 C90.94846,28.7672951 88.3554245,26.7242125 86.4451705,26.7242125 L51.2589063,26.7242125 L51.2627422,36.2757225 Z" id="Fill-11"></path>
                <path d="M51.2569884,23.0810445 L51.2569884,13.5097755 L98.2653464,13.5097755 C101.47979,13.5097755 103.712255,15.9875565 103.712255,19.1924695 C103.677733,22.950635 103.712255,105.405023 103.712255,105.405023 L94.4448385,105.405023 L94.4448385,29.0285094 C94.4448385,25.6734279 93.0255735,23.0810445 89.0631391,23.0810445 L51.2569884,23.0810445 Z" id="Fill-13"></path>
                <path d="M116.554686,105.405418 L107.237403,105.405418 L107.237403,16.4977344 C107.237403,13.2809661 105.672375,9.87846293 101.111548,9.87846293 L51.2569884,9.87846293 L51.2569884,0.326952946 L105.488254,0.326952946 C111.671647,0.326952946 116.554686,5.61446654 116.554686,11.9096901 L116.554686,105.405418 Z" id="Fill-15"></path>
                <path d="M78.1585809,105.405418 L68.8374622,105.405418 L68.8374622,53.2060407 C68.8374622,51.305223 67.9974107,49.491345 65.3545092,49.491345 L51.2615914,49.491345 L51.2615914,39.9082206 L73.4174687,39.9082206 C76.8275405,39.9082206 78.1585809,42.1449416 78.1585809,44.6859515 L78.1585809,105.405418 Z" id="Fill-18"></path>
            </g>
        </g>
    </g>
</svg>